<svg xmlns="http://www.w3.org/2000/svg" viewBox="0 0 800 900">
  <rect width="800" height="900" fill="#EFE6D8" />
  <path d="M0,300 C150,250 250,380 400,320 C550,260 650,400 800,330 L800,900 L0,900 Z" fill="#3D2B1F" opacity="0.88" />
  <path d="M0,380 C160,330 260,450 400,400 C540,350 640,470 800,410 L800,900 L0,900 Z" fill="#7A1F2B" opacity="0.55" />
  <g opacity="0.5">
    <rect x="20" y="845" width="13" height="13" fill="#C9A961" transform="rotate(45 26 851)" /><rect x="68" y="845" width="13" height="13" fill="#C9A961" transform="rotate(45 74 851)" /><rect x="116" y="845" width="13" height="13" fill="#C9A961" transform="rotate(45 122 851)" /><rect x="164" y="845" width="13" height="13" fill="#C9A961" transform="rotate(45 170 851)" /><rect x="212" y="845" width="13" height="13" fill="#C9A961" transform="rotate(45 218 851)" /><rect x="260" y="845" width="13" height="13" fill="#C9A961" transform="rotate(45 266 851)" /><rect x="308" y="845" width="13" height="13" fill="#C9A961" transform="rotate(45 314 851)" /><rect x="356" y="845" width="13" height="13" fill="#C9A961" transform="rotate(45 362 851)" /><rect x="404" y="845" width="13" height="13" fill="#C9A961" transform="rotate(45 410 851)" /><rect x="452" y="845" width="13" height="13" fill="#C9A961" transform="rotate(45 458 851)" /><rect x="500" y="845" width="13" height="13" fill="#C9A961" transform="rotate(45 506 851)" /><rect x="548" y="845" width="13" height="13" fill="#C9A961" transform="rotate(45 554 851)" /><rect x="596" y="845" width="13" height="13" fill="#C9A961" transform="rotate(45 602 851)" /><rect x="644" y="845" width="13" height="13" fill="#C9A961" transform="rotate(45 650 851)" /><rect x="692" y="845" width="13" height="13" fill="#C9A961" transform="rotate(45 698 851)" /><rect x="740" y="845" width="13" height="13" fill="#C9A961" transform="rotate(45 746 851)" />
  </g>
  <rect x="0" y="830" width="800" height="2" fill="#C9A961" opacity="0.6" />
  <circle cx="400" cy="160" r="60" fill="none" stroke="#C9A961" stroke-width="1.5" opacity="0.6" />
  <text x="400" y="170" text-anchor="middle" font-family="Georgia, serif" font-style="italic" font-size="32" fill="#7A1F2B" opacity="0.7">HJ</text>
</svg>