<svg xmlns="http://www.w3.org/2000/svg" viewBox="0 0 400 500">
  <rect width="400" height="500" fill="#FAF1E6" />
  <path d="M0,180 C80,140 140,220 200,180 C260,140 320,220 400,180 L400,500 L0,500 Z" fill="#9C3B4A" opacity="0.92" />
  <path d="M0,230 C90,195 150,260 200,225 C250,195 310,260 400,230 L400,500 L0,500 Z" fill="#9C3B4A" opacity="0.75" />
  <rect x="20" y="455" width="14" height="14" fill="#E0C896" transform="rotate(45 27 462)" /><rect x="62" y="455" width="14" height="14" fill="#E0C896" transform="rotate(45 69 462)" /><rect x="104" y="455" width="14" height="14" fill="#E0C896" transform="rotate(45 111 462)" /><rect x="146" y="455" width="14" height="14" fill="#E0C896" transform="rotate(45 153 462)" /><rect x="188" y="455" width="14" height="14" fill="#E0C896" transform="rotate(45 195 462)" /><rect x="230" y="455" width="14" height="14" fill="#E0C896" transform="rotate(45 237 462)" /><rect x="272" y="455" width="14" height="14" fill="#E0C896" transform="rotate(45 279 462)" /><rect x="314" y="455" width="14" height="14" fill="#E0C896" transform="rotate(45 321 462)" /><rect x="356" y="455" width="14" height="14" fill="#E0C896" transform="rotate(45 363 462)" />
  <rect x="0" y="440" width="400" height="3" fill="#E0C896" />
  <rect x="0" y="478" width="400" height="3" fill="#E0C896" />
  <circle cx="40" cy="260" r="3" fill="#E0C896" opacity="0.5" /><circle cx="120" cy="260" r="3" fill="#E0C896" opacity="0.5" /><circle cx="200" cy="260" r="3" fill="#E0C896" opacity="0.5" /><circle cx="280" cy="260" r="3" fill="#E0C896" opacity="0.5" /><circle cx="360" cy="260" r="3" fill="#E0C896" opacity="0.5" /><circle cx="40" cy="290" r="3" fill="#E0C896" opacity="0.5" /><circle cx="120" cy="290" r="3" fill="#E0C896" opacity="0.5" /><circle cx="200" cy="290" r="3" fill="#E0C896" opacity="0.5" /><circle cx="280" cy="290" r="3" fill="#E0C896" opacity="0.5" /><circle cx="360" cy="290" r="3" fill="#E0C896" opacity="0.5" /><circle cx="40" cy="320" r="3" fill="#E0C896" opacity="0.5" /><circle cx="120" cy="320" r="3" fill="#E0C896" opacity="0.5" /><circle cx="200" cy="320" r="3" fill="#E0C896" opacity="0.5" /><circle cx="280" cy="320" r="3" fill="#E0C896" opacity="0.5" /><circle cx="360" cy="320" r="3" fill="#E0C896" opacity="0.5" /><circle cx="40" cy="350" r="3" fill="#E0C896" opacity="0.5" /><circle cx="120" cy="350" r="3" fill="#E0C896" opacity="0.5" /><circle cx="200" cy="350" r="3" fill="#E0C896" opacity="0.5" /><circle cx="280" cy="350" r="3" fill="#E0C896" opacity="0.5" /><circle cx="360" cy="350" r="3" fill="#E0C896" opacity="0.5" /><circle cx="40" cy="380" r="3" fill="#E0C896" opacity="0.5" /><circle cx="120" cy="380" r="3" fill="#E0C896" opacity="0.5" /><circle cx="200" cy="380" r="3" fill="#E0C896" opacity="0.5" /><circle cx="280" cy="380" r="3" fill="#E0C896" opacity="0.5" /><circle cx="360" cy="380" r="3" fill="#E0C896" opacity="0.5" /><circle cx="40" cy="410" r="3" fill="#E0C896" opacity="0.5" /><circle cx="120" cy="410" r="3" fill="#E0C896" opacity="0.5" /><circle cx="200" cy="410" r="3" fill="#E0C896" opacity="0.5" /><circle cx="280" cy="410" r="3" fill="#E0C896" opacity="0.5" /><circle cx="360" cy="410" r="3" fill="#E0C896" opacity="0.5" />
  <circle cx="200" cy="90" r="42" fill="none" stroke="#9C3B4A" stroke-width="2" opacity="0.5" />
  <circle cx="200" cy="90" r="30" fill="none" stroke="#E0C896" stroke-width="1.5" opacity="0.6" />
  <text x="200" y="98" text-anchor="middle" font-family="Georgia, serif" font-style="italic" font-size="22" fill="#9C3B4A" opacity="0.7">HJ</text>
</svg>