<svg xmlns="http://www.w3.org/2000/svg" viewBox="0 0 400 500">
  <rect width="400" height="500" fill="#EFE2C3" />
  <path d="M0,180 C80,140 140,220 200,180 C260,140 320,220 400,180 L400,500 L0,500 Z" fill="#8A6D3B" opacity="0.92" />
  <path d="M0,230 C90,195 150,260 200,225 C250,195 310,260 400,230 L400,500 L0,500 Z" fill="#8A6D3B" opacity="0.75" />
  <rect x="20" y="455" width="14" height="14" fill="#FAF6EF" transform="rotate(45 27 462)" /><rect x="62" y="455" width="14" height="14" fill="#FAF6EF" transform="rotate(45 69 462)" /><rect x="104" y="455" width="14" height="14" fill="#FAF6EF" transform="rotate(45 111 462)" /><rect x="146" y="455" width="14" height="14" fill="#FAF6EF" transform="rotate(45 153 462)" /><rect x="188" y="455" width="14" height="14" fill="#FAF6EF" transform="rotate(45 195 462)" /><rect x="230" y="455" width="14" height="14" fill="#FAF6EF" transform="rotate(45 237 462)" /><rect x="272" y="455" width="14" height="14" fill="#FAF6EF" transform="rotate(45 279 462)" /><rect x="314" y="455" width="14" height="14" fill="#FAF6EF" transform="rotate(45 321 462)" /><rect x="356" y="455" width="14" height="14" fill="#FAF6EF" transform="rotate(45 363 462)" />
  <rect x="0" y="440" width="400" height="3" fill="#FAF6EF" />
  <rect x="0" y="478" width="400" height="3" fill="#FAF6EF" />
  <path d="M30,480 Q50,420 30,360" stroke="#FAF6EF" stroke-width="2" fill="none" opacity="0.4" /><path d="M110,480 Q130,420 110,360" stroke="#FAF6EF" stroke-width="2" fill="none" opacity="0.4" /><path d="M190,480 Q210,420 190,360" stroke="#FAF6EF" stroke-width="2" fill="none" opacity="0.4" /><path d="M270,480 Q290,420 270,360" stroke="#FAF6EF" stroke-width="2" fill="none" opacity="0.4" /><path d="M350,480 Q370,420 350,360" stroke="#FAF6EF" stroke-width="2" fill="none" opacity="0.4" />
  <circle cx="200" cy="90" r="42" fill="none" stroke="#8A6D3B" stroke-width="2" opacity="0.5" />
  <circle cx="200" cy="90" r="30" fill="none" stroke="#FAF6EF" stroke-width="1.5" opacity="0.6" />
  <text x="200" y="98" text-anchor="middle" font-family="Georgia, serif" font-style="italic" font-size="22" fill="#8A6D3B" opacity="0.7">HJ</text>
</svg>